<?xml version="1.0" encoding="utf-8" standalone="no"?>
<!DOCTYPE svg PUBLIC "-//W3C//DTD SVG 1.1//EN"
  "http://www.w3.org/Graphics/SVG/1.1/DTD/svg11.dtd">
<svg xmlns:xlink="http://www.w3.org/1999/xlink" width="460.8pt" height="345.6pt" viewBox="0 0 460.8 345.6" xmlns="http://www.w3.org/2000/svg" version="1.1">
 <metadata>
  <rdf:RDF xmlns:dc="http://purl.org/dc/elements/1.1/" xmlns:cc="http://creativecommons.org/ns#" xmlns:rdf="http://www.w3.org/1999/02/22-rdf-syntax-ns#">
   <cc:Work>
    <dc:type rdf:resource="http://purl.org/dc/dcmitype/StillImage"/>
    <dc:date>2022-04-20T16:12:01.016937</dc:date>
    <dc:format>image/svg+xml</dc:format>
    <dc:creator>
     <cc:Agent>
      <dc:title>Matplotlib v3.5.1, https://matplotlib.org/</dc:title>
     </cc:Agent>
    </dc:creator>
   </cc:Work>
  </rdf:RDF>
 </metadata>
 <defs>
  <style type="text/css">*{stroke-linejoin: round; stroke-linecap: butt}</style>
 </defs>
 <g id="figure_1">
  <g id="patch_1">
   <path d="M 0 345.6 
L 460.8 345.6 
L 460.8 0 
L 0 0 
z
" style="fill: #ffffff"/>
  </g>
  <g id="axes_1">
   <g id="patch_2">
    <path d="M 57.6 307.584 
L 414.72 307.584 
L 414.72 41.472 
L 57.6 41.472 
z
" style="fill: #ffffff"/>
   </g>
   <g id="matplotlib.axis_1">
    <g id="xtick_1">
     <g id="line2d_1">
      <defs>
       <path id="medac1bebf9" d="M 0 0 
L 0 3.5 
" style="stroke: #000000; stroke-width: 0.8"/>
      </defs>
      <g>
       <use xlink:href="#medac1bebf9" x="73.832727" y="307.584" style="stroke: #000000; stroke-width: 0.8"/>
      </g>
     </g>
     <g id="text_1">
      <!-- 0 -->
      <g transform="translate(70.651477 322.182437)scale(0.1 -0.1)">
       <defs>
        <path id="DejaVuSans-30" d="M 2034 4250 
Q 1547 4250 1301 3770 
Q 1056 3291 1056 2328 
Q 1056 1369 1301 889 
Q 1547 409 2034 409 
Q 2525 409 2770 889 
Q 3016 1369 3016 2328 
Q 3016 3291 2770 3770 
Q 2525 4250 2034 4250 
z
M 2034 4750 
Q 2819 4750 3233 4129 
Q 3647 3509 3647 2328 
Q 3647 1150 3233 529 
Q 2819 -91 2034 -91 
Q 1250 -91 836 529 
Q 422 1150 422 2328 
Q 422 3509 836 4129 
Q 1250 4750 2034 4750 
z
" transform="scale(0.015625)"/>
       </defs>
       <use xlink:href="#DejaVuSans-30"/>
      </g>
     </g>
    </g>
    <g id="xtick_2">
     <g id="line2d_2">
      <g>
       <use xlink:href="#medac1bebf9" x="147.617851" y="307.584" style="stroke: #000000; stroke-width: 0.8"/>
      </g>
     </g>
     <g id="text_2">
      <!-- 20 -->
      <g transform="translate(141.255351 322.182437)scale(0.1 -0.1)">
       <defs>
        <path id="DejaVuSans-32" d="M 1228 531 
L 3431 531 
L 3431 0 
L 469 0 
L 469 531 
Q 828 903 1448 1529 
Q 2069 2156 2228 2338 
Q 2531 2678 2651 2914 
Q 2772 3150 2772 3378 
Q 2772 3750 2511 3984 
Q 2250 4219 1831 4219 
Q 1534 4219 1204 4116 
Q 875 4013 500 3803 
L 500 4441 
Q 881 4594 1212 4672 
Q 1544 4750 1819 4750 
Q 2544 4750 2975 4387 
Q 3406 4025 3406 3419 
Q 3406 3131 3298 2873 
Q 3191 2616 2906 2266 
Q 2828 2175 2409 1742 
Q 1991 1309 1228 531 
z
" transform="scale(0.015625)"/>
       </defs>
       <use xlink:href="#DejaVuSans-32"/>
       <use xlink:href="#DejaVuSans-30" x="63.623047"/>
      </g>
     </g>
    </g>
    <g id="xtick_3">
     <g id="line2d_3">
      <g>
       <use xlink:href="#medac1bebf9" x="221.402975" y="307.584" style="stroke: #000000; stroke-width: 0.8"/>
      </g>
     </g>
     <g id="text_3">
      <!-- 40 -->
      <g transform="translate(215.040475 322.182437)scale(0.1 -0.1)">
       <defs>
        <path id="DejaVuSans-34" d="M 2419 4116 
L 825 1625 
L 2419 1625 
L 2419 4116 
z
M 2253 4666 
L 3047 4666 
L 3047 1625 
L 3713 1625 
L 3713 1100 
L 3047 1100 
L 3047 0 
L 2419 0 
L 2419 1100 
L 313 1100 
L 313 1709 
L 2253 4666 
z
" transform="scale(0.015625)"/>
       </defs>
       <use xlink:href="#DejaVuSans-34"/>
       <use xlink:href="#DejaVuSans-30" x="63.623047"/>
      </g>
     </g>
    </g>
    <g id="xtick_4">
     <g id="line2d_4">
      <g>
       <use xlink:href="#medac1bebf9" x="295.188099" y="307.584" style="stroke: #000000; stroke-width: 0.8"/>
      </g>
     </g>
     <g id="text_4">
      <!-- 60 -->
      <g transform="translate(288.825599 322.182437)scale(0.1 -0.1)">
       <defs>
        <path id="DejaVuSans-36" d="M 2113 2584 
Q 1688 2584 1439 2293 
Q 1191 2003 1191 1497 
Q 1191 994 1439 701 
Q 1688 409 2113 409 
Q 2538 409 2786 701 
Q 3034 994 3034 1497 
Q 3034 2003 2786 2293 
Q 2538 2584 2113 2584 
z
M 3366 4563 
L 3366 3988 
Q 3128 4100 2886 4159 
Q 2644 4219 2406 4219 
Q 1781 4219 1451 3797 
Q 1122 3375 1075 2522 
Q 1259 2794 1537 2939 
Q 1816 3084 2150 3084 
Q 2853 3084 3261 2657 
Q 3669 2231 3669 1497 
Q 3669 778 3244 343 
Q 2819 -91 2113 -91 
Q 1303 -91 875 529 
Q 447 1150 447 2328 
Q 447 3434 972 4092 
Q 1497 4750 2381 4750 
Q 2619 4750 2861 4703 
Q 3103 4656 3366 4563 
z
" transform="scale(0.015625)"/>
       </defs>
       <use xlink:href="#DejaVuSans-36"/>
       <use xlink:href="#DejaVuSans-30" x="63.623047"/>
      </g>
     </g>
    </g>
    <g id="xtick_5">
     <g id="line2d_5">
      <g>
       <use xlink:href="#medac1bebf9" x="368.973223" y="307.584" style="stroke: #000000; stroke-width: 0.8"/>
      </g>
     </g>
     <g id="text_5">
      <!-- 80 -->
      <g transform="translate(362.610723 322.182437)scale(0.1 -0.1)">
       <defs>
        <path id="DejaVuSans-38" d="M 2034 2216 
Q 1584 2216 1326 1975 
Q 1069 1734 1069 1313 
Q 1069 891 1326 650 
Q 1584 409 2034 409 
Q 2484 409 2743 651 
Q 3003 894 3003 1313 
Q 3003 1734 2745 1975 
Q 2488 2216 2034 2216 
z
M 1403 2484 
Q 997 2584 770 2862 
Q 544 3141 544 3541 
Q 544 4100 942 4425 
Q 1341 4750 2034 4750 
Q 2731 4750 3128 4425 
Q 3525 4100 3525 3541 
Q 3525 3141 3298 2862 
Q 3072 2584 2669 2484 
Q 3125 2378 3379 2068 
Q 3634 1759 3634 1313 
Q 3634 634 3220 271 
Q 2806 -91 2034 -91 
Q 1263 -91 848 271 
Q 434 634 434 1313 
Q 434 1759 690 2068 
Q 947 2378 1403 2484 
z
M 1172 3481 
Q 1172 3119 1398 2916 
Q 1625 2713 2034 2713 
Q 2441 2713 2670 2916 
Q 2900 3119 2900 3481 
Q 2900 3844 2670 4047 
Q 2441 4250 2034 4250 
Q 1625 4250 1398 4047 
Q 1172 3844 1172 3481 
z
" transform="scale(0.015625)"/>
       </defs>
       <use xlink:href="#DejaVuSans-38"/>
       <use xlink:href="#DejaVuSans-30" x="63.623047"/>
      </g>
     </g>
    </g>
    <g id="text_6">
     <!-- Times Tested -->
     <g transform="translate(203.636562 335.860562)scale(0.1 -0.1)">
      <defs>
       <path id="DejaVuSans-54" d="M -19 4666 
L 3928 4666 
L 3928 4134 
L 2272 4134 
L 2272 0 
L 1638 0 
L 1638 4134 
L -19 4134 
L -19 4666 
z
" transform="scale(0.015625)"/>
       <path id="DejaVuSans-69" d="M 603 3500 
L 1178 3500 
L 1178 0 
L 603 0 
L 603 3500 
z
M 603 4863 
L 1178 4863 
L 1178 4134 
L 603 4134 
L 603 4863 
z
" transform="scale(0.015625)"/>
       <path id="DejaVuSans-6d" d="M 3328 2828 
Q 3544 3216 3844 3400 
Q 4144 3584 4550 3584 
Q 5097 3584 5394 3201 
Q 5691 2819 5691 2113 
L 5691 0 
L 5113 0 
L 5113 2094 
Q 5113 2597 4934 2840 
Q 4756 3084 4391 3084 
Q 3944 3084 3684 2787 
Q 3425 2491 3425 1978 
L 3425 0 
L 2847 0 
L 2847 2094 
Q 2847 2600 2669 2842 
Q 2491 3084 2119 3084 
Q 1678 3084 1418 2786 
Q 1159 2488 1159 1978 
L 1159 0 
L 581 0 
L 581 3500 
L 1159 3500 
L 1159 2956 
Q 1356 3278 1631 3431 
Q 1906 3584 2284 3584 
Q 2666 3584 2933 3390 
Q 3200 3197 3328 2828 
z
" transform="scale(0.015625)"/>
       <path id="DejaVuSans-65" d="M 3597 1894 
L 3597 1613 
L 953 1613 
Q 991 1019 1311 708 
Q 1631 397 2203 397 
Q 2534 397 2845 478 
Q 3156 559 3463 722 
L 3463 178 
Q 3153 47 2828 -22 
Q 2503 -91 2169 -91 
Q 1331 -91 842 396 
Q 353 884 353 1716 
Q 353 2575 817 3079 
Q 1281 3584 2069 3584 
Q 2775 3584 3186 3129 
Q 3597 2675 3597 1894 
z
M 3022 2063 
Q 3016 2534 2758 2815 
Q 2500 3097 2075 3097 
Q 1594 3097 1305 2825 
Q 1016 2553 972 2059 
L 3022 2063 
z
" transform="scale(0.015625)"/>
       <path id="DejaVuSans-73" d="M 2834 3397 
L 2834 2853 
Q 2591 2978 2328 3040 
Q 2066 3103 1784 3103 
Q 1356 3103 1142 2972 
Q 928 2841 928 2578 
Q 928 2378 1081 2264 
Q 1234 2150 1697 2047 
L 1894 2003 
Q 2506 1872 2764 1633 
Q 3022 1394 3022 966 
Q 3022 478 2636 193 
Q 2250 -91 1575 -91 
Q 1294 -91 989 -36 
Q 684 19 347 128 
L 347 722 
Q 666 556 975 473 
Q 1284 391 1588 391 
Q 1994 391 2212 530 
Q 2431 669 2431 922 
Q 2431 1156 2273 1281 
Q 2116 1406 1581 1522 
L 1381 1569 
Q 847 1681 609 1914 
Q 372 2147 372 2553 
Q 372 3047 722 3315 
Q 1072 3584 1716 3584 
Q 2034 3584 2315 3537 
Q 2597 3491 2834 3397 
z
" transform="scale(0.015625)"/>
       <path id="DejaVuSans-20" transform="scale(0.015625)"/>
       <path id="DejaVuSans-74" d="M 1172 4494 
L 1172 3500 
L 2356 3500 
L 2356 3053 
L 1172 3053 
L 1172 1153 
Q 1172 725 1289 603 
Q 1406 481 1766 481 
L 2356 481 
L 2356 0 
L 1766 0 
Q 1100 0 847 248 
Q 594 497 594 1153 
L 594 3053 
L 172 3053 
L 172 3500 
L 594 3500 
L 594 4494 
L 1172 4494 
z
" transform="scale(0.015625)"/>
       <path id="DejaVuSans-64" d="M 2906 2969 
L 2906 4863 
L 3481 4863 
L 3481 0 
L 2906 0 
L 2906 525 
Q 2725 213 2448 61 
Q 2172 -91 1784 -91 
Q 1150 -91 751 415 
Q 353 922 353 1747 
Q 353 2572 751 3078 
Q 1150 3584 1784 3584 
Q 2172 3584 2448 3432 
Q 2725 3281 2906 2969 
z
M 947 1747 
Q 947 1113 1208 752 
Q 1469 391 1925 391 
Q 2381 391 2643 752 
Q 2906 1113 2906 1747 
Q 2906 2381 2643 2742 
Q 2381 3103 1925 3103 
Q 1469 3103 1208 2742 
Q 947 2381 947 1747 
z
" transform="scale(0.015625)"/>
      </defs>
      <use xlink:href="#DejaVuSans-54"/>
      <use xlink:href="#DejaVuSans-69" x="57.958984"/>
      <use xlink:href="#DejaVuSans-6d" x="85.742188"/>
      <use xlink:href="#DejaVuSans-65" x="183.154297"/>
      <use xlink:href="#DejaVuSans-73" x="244.677734"/>
      <use xlink:href="#DejaVuSans-20" x="296.777344"/>
      <use xlink:href="#DejaVuSans-54" x="328.564453"/>
      <use xlink:href="#DejaVuSans-65" x="372.648438"/>
      <use xlink:href="#DejaVuSans-73" x="434.171875"/>
      <use xlink:href="#DejaVuSans-74" x="486.271484"/>
      <use xlink:href="#DejaVuSans-65" x="525.480469"/>
      <use xlink:href="#DejaVuSans-64" x="587.003906"/>
     </g>
    </g>
   </g>
   <g id="matplotlib.axis_2">
    <g id="ytick_1">
     <g id="line2d_6">
      <defs>
       <path id="m42c69e4e25" d="M 0 0 
L -3.5 0 
" style="stroke: #000000; stroke-width: 0.8"/>
      </defs>
      <g>
       <use xlink:href="#m42c69e4e25" x="57.6" y="295.488" style="stroke: #000000; stroke-width: 0.8"/>
      </g>
     </g>
     <g id="text_7">
      <!-- 65.0 -->
      <g transform="translate(28.334375 299.287219)scale(0.1 -0.1)">
       <defs>
        <path id="DejaVuSans-35" d="M 691 4666 
L 3169 4666 
L 3169 4134 
L 1269 4134 
L 1269 2991 
Q 1406 3038 1543 3061 
Q 1681 3084 1819 3084 
Q 2600 3084 3056 2656 
Q 3513 2228 3513 1497 
Q 3513 744 3044 326 
Q 2575 -91 1722 -91 
Q 1428 -91 1123 -41 
Q 819 9 494 109 
L 494 744 
Q 775 591 1075 516 
Q 1375 441 1709 441 
Q 2250 441 2565 725 
Q 2881 1009 2881 1497 
Q 2881 1984 2565 2268 
Q 2250 2553 1709 2553 
Q 1456 2553 1204 2497 
Q 953 2441 691 2322 
L 691 4666 
z
" transform="scale(0.015625)"/>
        <path id="DejaVuSans-2e" d="M 684 794 
L 1344 794 
L 1344 0 
L 684 0 
L 684 794 
z
" transform="scale(0.015625)"/>
       </defs>
       <use xlink:href="#DejaVuSans-36"/>
       <use xlink:href="#DejaVuSans-35" x="63.623047"/>
       <use xlink:href="#DejaVuSans-2e" x="127.246094"/>
       <use xlink:href="#DejaVuSans-30" x="159.033203"/>
      </g>
     </g>
    </g>
    <g id="ytick_2">
     <g id="line2d_7">
      <g>
       <use xlink:href="#m42c69e4e25" x="57.6" y="265.248" style="stroke: #000000; stroke-width: 0.8"/>
      </g>
     </g>
     <g id="text_8">
      <!-- 67.5 -->
      <g transform="translate(28.334375 269.047219)scale(0.1 -0.1)">
       <defs>
        <path id="DejaVuSans-37" d="M 525 4666 
L 3525 4666 
L 3525 4397 
L 1831 0 
L 1172 0 
L 2766 4134 
L 525 4134 
L 525 4666 
z
" transform="scale(0.015625)"/>
       </defs>
       <use xlink:href="#DejaVuSans-36"/>
       <use xlink:href="#DejaVuSans-37" x="63.623047"/>
       <use xlink:href="#DejaVuSans-2e" x="127.246094"/>
       <use xlink:href="#DejaVuSans-35" x="159.033203"/>
      </g>
     </g>
    </g>
    <g id="ytick_3">
     <g id="line2d_8">
      <g>
       <use xlink:href="#m42c69e4e25" x="57.6" y="235.008" style="stroke: #000000; stroke-width: 0.8"/>
      </g>
     </g>
     <g id="text_9">
      <!-- 70.0 -->
      <g transform="translate(28.334375 238.807219)scale(0.1 -0.1)">
       <use xlink:href="#DejaVuSans-37"/>
       <use xlink:href="#DejaVuSans-30" x="63.623047"/>
       <use xlink:href="#DejaVuSans-2e" x="127.246094"/>
       <use xlink:href="#DejaVuSans-30" x="159.033203"/>
      </g>
     </g>
    </g>
    <g id="ytick_4">
     <g id="line2d_9">
      <g>
       <use xlink:href="#m42c69e4e25" x="57.6" y="204.768" style="stroke: #000000; stroke-width: 0.8"/>
      </g>
     </g>
     <g id="text_10">
      <!-- 72.5 -->
      <g transform="translate(28.334375 208.567219)scale(0.1 -0.1)">
       <use xlink:href="#DejaVuSans-37"/>
       <use xlink:href="#DejaVuSans-32" x="63.623047"/>
       <use xlink:href="#DejaVuSans-2e" x="127.246094"/>
       <use xlink:href="#DejaVuSans-35" x="159.033203"/>
      </g>
     </g>
    </g>
    <g id="ytick_5">
     <g id="line2d_10">
      <g>
       <use xlink:href="#m42c69e4e25" x="57.6" y="174.528" style="stroke: #000000; stroke-width: 0.8"/>
      </g>
     </g>
     <g id="text_11">
      <!-- 75.0 -->
      <g transform="translate(28.334375 178.327219)scale(0.1 -0.1)">
       <use xlink:href="#DejaVuSans-37"/>
       <use xlink:href="#DejaVuSans-35" x="63.623047"/>
       <use xlink:href="#DejaVuSans-2e" x="127.246094"/>
       <use xlink:href="#DejaVuSans-30" x="159.033203"/>
      </g>
     </g>
    </g>
    <g id="ytick_6">
     <g id="line2d_11">
      <g>
       <use xlink:href="#m42c69e4e25" x="57.6" y="144.288" style="stroke: #000000; stroke-width: 0.8"/>
      </g>
     </g>
     <g id="text_12">
      <!-- 77.5 -->
      <g transform="translate(28.334375 148.087219)scale(0.1 -0.1)">
       <use xlink:href="#DejaVuSans-37"/>
       <use xlink:href="#DejaVuSans-37" x="63.623047"/>
       <use xlink:href="#DejaVuSans-2e" x="127.246094"/>
       <use xlink:href="#DejaVuSans-35" x="159.033203"/>
      </g>
     </g>
    </g>
    <g id="ytick_7">
     <g id="line2d_12">
      <g>
       <use xlink:href="#m42c69e4e25" x="57.6" y="114.048" style="stroke: #000000; stroke-width: 0.8"/>
      </g>
     </g>
     <g id="text_13">
      <!-- 80.0 -->
      <g transform="translate(28.334375 117.847219)scale(0.1 -0.1)">
       <use xlink:href="#DejaVuSans-38"/>
       <use xlink:href="#DejaVuSans-30" x="63.623047"/>
       <use xlink:href="#DejaVuSans-2e" x="127.246094"/>
       <use xlink:href="#DejaVuSans-30" x="159.033203"/>
      </g>
     </g>
    </g>
    <g id="ytick_8">
     <g id="line2d_13">
      <g>
       <use xlink:href="#m42c69e4e25" x="57.6" y="83.808" style="stroke: #000000; stroke-width: 0.8"/>
      </g>
     </g>
     <g id="text_14">
      <!-- 82.5 -->
      <g transform="translate(28.334375 87.607219)scale(0.1 -0.1)">
       <use xlink:href="#DejaVuSans-38"/>
       <use xlink:href="#DejaVuSans-32" x="63.623047"/>
       <use xlink:href="#DejaVuSans-2e" x="127.246094"/>
       <use xlink:href="#DejaVuSans-35" x="159.033203"/>
      </g>
     </g>
    </g>
    <g id="ytick_9">
     <g id="line2d_14">
      <g>
       <use xlink:href="#m42c69e4e25" x="57.6" y="53.568" style="stroke: #000000; stroke-width: 0.8"/>
      </g>
     </g>
     <g id="text_15">
      <!-- 85.0 -->
      <g transform="translate(28.334375 57.367219)scale(0.1 -0.1)">
       <use xlink:href="#DejaVuSans-38"/>
       <use xlink:href="#DejaVuSans-35" x="63.623047"/>
       <use xlink:href="#DejaVuSans-2e" x="127.246094"/>
       <use xlink:href="#DejaVuSans-30" x="159.033203"/>
      </g>
     </g>
    </g>
    <g id="text_16">
     <!-- Speed -->
     <g transform="translate(22.254687 190.203781)rotate(-90)scale(0.1 -0.1)">
      <defs>
       <path id="DejaVuSans-53" d="M 3425 4513 
L 3425 3897 
Q 3066 4069 2747 4153 
Q 2428 4238 2131 4238 
Q 1616 4238 1336 4038 
Q 1056 3838 1056 3469 
Q 1056 3159 1242 3001 
Q 1428 2844 1947 2747 
L 2328 2669 
Q 3034 2534 3370 2195 
Q 3706 1856 3706 1288 
Q 3706 609 3251 259 
Q 2797 -91 1919 -91 
Q 1588 -91 1214 -16 
Q 841 59 441 206 
L 441 856 
Q 825 641 1194 531 
Q 1563 422 1919 422 
Q 2459 422 2753 634 
Q 3047 847 3047 1241 
Q 3047 1584 2836 1778 
Q 2625 1972 2144 2069 
L 1759 2144 
Q 1053 2284 737 2584 
Q 422 2884 422 3419 
Q 422 4038 858 4394 
Q 1294 4750 2059 4750 
Q 2388 4750 2728 4690 
Q 3069 4631 3425 4513 
z
" transform="scale(0.015625)"/>
       <path id="DejaVuSans-70" d="M 1159 525 
L 1159 -1331 
L 581 -1331 
L 581 3500 
L 1159 3500 
L 1159 2969 
Q 1341 3281 1617 3432 
Q 1894 3584 2278 3584 
Q 2916 3584 3314 3078 
Q 3713 2572 3713 1747 
Q 3713 922 3314 415 
Q 2916 -91 2278 -91 
Q 1894 -91 1617 61 
Q 1341 213 1159 525 
z
M 3116 1747 
Q 3116 2381 2855 2742 
Q 2594 3103 2138 3103 
Q 1681 3103 1420 2742 
Q 1159 2381 1159 1747 
Q 1159 1113 1420 752 
Q 1681 391 2138 391 
Q 2594 391 2855 752 
Q 3116 1113 3116 1747 
z
" transform="scale(0.015625)"/>
      </defs>
      <use xlink:href="#DejaVuSans-53"/>
      <use xlink:href="#DejaVuSans-70" x="63.476562"/>
      <use xlink:href="#DejaVuSans-65" x="126.953125"/>
      <use xlink:href="#DejaVuSans-65" x="188.476562"/>
      <use xlink:href="#DejaVuSans-64" x="250"/>
     </g>
    </g>
   </g>
   <g id="line2d_15">
    <path d="M 73.832727 210.816 
L 77.521983 138.24 
L 81.21124 162.432 
L 84.900496 138.24 
L 88.589752 186.624 
L 92.279008 150.336 
L 95.968264 162.432 
L 99.657521 138.24 
L 103.346777 162.432 
L 107.036033 186.624 
L 110.725289 150.336 
L 114.414545 138.24 
L 118.103802 114.048 
L 121.793058 114.048 
L 125.482314 138.24 
L 129.17157 114.048 
L 132.860826 150.336 
L 136.550083 138.24 
L 140.239339 198.72 
L 143.928595 138.24 
L 147.617851 114.048 
L 151.307107 162.432 
L 154.996364 150.336 
L 158.68562 174.528 
L 162.374876 174.528 
L 166.064132 126.144 
L 169.753388 138.24 
L 173.442645 114.048 
L 177.131901 126.144 
L 180.821157 138.24 
L 184.510413 174.528 
L 188.199669 126.144 
L 191.888926 138.24 
L 195.578182 150.336 
L 199.267438 150.336 
L 202.956694 186.624 
L 206.64595 150.336 
L 210.335207 222.912 
L 214.024463 126.144 
L 217.713719 235.008 
L 221.402975 150.336 
L 225.092231 126.144 
L 228.781488 162.432 
L 232.470744 150.336 
L 236.16 150.336 
L 239.849256 150.336 
L 243.538512 150.336 
L 247.227769 150.336 
L 250.917025 114.048 
L 254.606281 162.432 
L 258.295537 150.336 
L 261.984793 150.336 
L 265.67405 138.24 
L 269.363306 150.336 
L 273.052562 150.336 
L 276.741818 138.24 
L 280.431074 138.24 
L 284.120331 162.432 
L 287.809587 186.624 
L 291.498843 138.24 
L 295.188099 126.144 
L 298.877355 114.048 
L 302.566612 150.336 
L 306.255868 126.144 
L 309.945124 150.336 
L 313.63438 162.432 
L 317.323636 114.048 
L 321.012893 162.432 
L 324.702149 138.24 
L 328.391405 126.144 
L 332.080661 114.048 
L 335.769917 138.24 
L 339.459174 138.24 
L 343.14843 150.336 
L 346.837686 150.336 
L 350.526942 162.432 
L 354.216198 126.144 
L 357.905455 162.432 
L 361.594711 150.336 
L 365.283967 126.144 
L 368.973223 114.048 
L 372.662479 126.144 
L 376.351736 114.048 
L 380.040992 138.24 
L 383.730248 150.336 
L 387.419504 150.336 
L 391.10876 114.048 
L 394.798017 162.432 
L 398.487273 150.336 
" clip-path="url(#pf413e7c922)" style="fill: none; stroke: #ff0000; stroke-width: 1.5; stroke-linecap: square"/>
    <defs>
     <path id="m241648db17" d="M 0 3 
C 0.795609 3 1.55874 2.683901 2.12132 2.12132 
C 2.683901 1.55874 3 0.795609 3 0 
C 3 -0.795609 2.683901 -1.55874 2.12132 -2.12132 
C 1.55874 -2.683901 0.795609 -3 0 -3 
C -0.795609 -3 -1.55874 -2.683901 -2.12132 -2.12132 
C -2.683901 -1.55874 -3 -0.795609 -3 0 
C -3 0.795609 -2.683901 1.55874 -2.12132 2.12132 
C -1.55874 2.683901 -0.795609 3 0 3 
z
" style="stroke: #ff0000"/>
    </defs>
    <g clip-path="url(#pf413e7c922)">
     <use xlink:href="#m241648db17" x="73.832727" y="210.816" style="fill: #ff0000; stroke: #ff0000"/>
     <use xlink:href="#m241648db17" x="77.521983" y="138.24" style="fill: #ff0000; stroke: #ff0000"/>
     <use xlink:href="#m241648db17" x="81.21124" y="162.432" style="fill: #ff0000; stroke: #ff0000"/>
     <use xlink:href="#m241648db17" x="84.900496" y="138.24" style="fill: #ff0000; stroke: #ff0000"/>
     <use xlink:href="#m241648db17" x="88.589752" y="186.624" style="fill: #ff0000; stroke: #ff0000"/>
     <use xlink:href="#m241648db17" x="92.279008" y="150.336" style="fill: #ff0000; stroke: #ff0000"/>
     <use xlink:href="#m241648db17" x="95.968264" y="162.432" style="fill: #ff0000; stroke: #ff0000"/>
     <use xlink:href="#m241648db17" x="99.657521" y="138.24" style="fill: #ff0000; stroke: #ff0000"/>
     <use xlink:href="#m241648db17" x="103.346777" y="162.432" style="fill: #ff0000; stroke: #ff0000"/>
     <use xlink:href="#m241648db17" x="107.036033" y="186.624" style="fill: #ff0000; stroke: #ff0000"/>
     <use xlink:href="#m241648db17" x="110.725289" y="150.336" style="fill: #ff0000; stroke: #ff0000"/>
     <use xlink:href="#m241648db17" x="114.414545" y="138.24" style="fill: #ff0000; stroke: #ff0000"/>
     <use xlink:href="#m241648db17" x="118.103802" y="114.048" style="fill: #ff0000; stroke: #ff0000"/>
     <use xlink:href="#m241648db17" x="121.793058" y="114.048" style="fill: #ff0000; stroke: #ff0000"/>
     <use xlink:href="#m241648db17" x="125.482314" y="138.24" style="fill: #ff0000; stroke: #ff0000"/>
     <use xlink:href="#m241648db17" x="129.17157" y="114.048" style="fill: #ff0000; stroke: #ff0000"/>
     <use xlink:href="#m241648db17" x="132.860826" y="150.336" style="fill: #ff0000; stroke: #ff0000"/>
     <use xlink:href="#m241648db17" x="136.550083" y="138.24" style="fill: #ff0000; stroke: #ff0000"/>
     <use xlink:href="#m241648db17" x="140.239339" y="198.72" style="fill: #ff0000; stroke: #ff0000"/>
     <use xlink:href="#m241648db17" x="143.928595" y="138.24" style="fill: #ff0000; stroke: #ff0000"/>
     <use xlink:href="#m241648db17" x="147.617851" y="114.048" style="fill: #ff0000; stroke: #ff0000"/>
     <use xlink:href="#m241648db17" x="151.307107" y="162.432" style="fill: #ff0000; stroke: #ff0000"/>
     <use xlink:href="#m241648db17" x="154.996364" y="150.336" style="fill: #ff0000; stroke: #ff0000"/>
     <use xlink:href="#m241648db17" x="158.68562" y="174.528" style="fill: #ff0000; stroke: #ff0000"/>
     <use xlink:href="#m241648db17" x="162.374876" y="174.528" style="fill: #ff0000; stroke: #ff0000"/>
     <use xlink:href="#m241648db17" x="166.064132" y="126.144" style="fill: #ff0000; stroke: #ff0000"/>
     <use xlink:href="#m241648db17" x="169.753388" y="138.24" style="fill: #ff0000; stroke: #ff0000"/>
     <use xlink:href="#m241648db17" x="173.442645" y="114.048" style="fill: #ff0000; stroke: #ff0000"/>
     <use xlink:href="#m241648db17" x="177.131901" y="126.144" style="fill: #ff0000; stroke: #ff0000"/>
     <use xlink:href="#m241648db17" x="180.821157" y="138.24" style="fill: #ff0000; stroke: #ff0000"/>
     <use xlink:href="#m241648db17" x="184.510413" y="174.528" style="fill: #ff0000; stroke: #ff0000"/>
     <use xlink:href="#m241648db17" x="188.199669" y="126.144" style="fill: #ff0000; stroke: #ff0000"/>
     <use xlink:href="#m241648db17" x="191.888926" y="138.24" style="fill: #ff0000; stroke: #ff0000"/>
     <use xlink:href="#m241648db17" x="195.578182" y="150.336" style="fill: #ff0000; stroke: #ff0000"/>
     <use xlink:href="#m241648db17" x="199.267438" y="150.336" style="fill: #ff0000; stroke: #ff0000"/>
     <use xlink:href="#m241648db17" x="202.956694" y="186.624" style="fill: #ff0000; stroke: #ff0000"/>
     <use xlink:href="#m241648db17" x="206.64595" y="150.336" style="fill: #ff0000; stroke: #ff0000"/>
     <use xlink:href="#m241648db17" x="210.335207" y="222.912" style="fill: #ff0000; stroke: #ff0000"/>
     <use xlink:href="#m241648db17" x="214.024463" y="126.144" style="fill: #ff0000; stroke: #ff0000"/>
     <use xlink:href="#m241648db17" x="217.713719" y="235.008" style="fill: #ff0000; stroke: #ff0000"/>
     <use xlink:href="#m241648db17" x="221.402975" y="150.336" style="fill: #ff0000; stroke: #ff0000"/>
     <use xlink:href="#m241648db17" x="225.092231" y="126.144" style="fill: #ff0000; stroke: #ff0000"/>
     <use xlink:href="#m241648db17" x="228.781488" y="162.432" style="fill: #ff0000; stroke: #ff0000"/>
     <use xlink:href="#m241648db17" x="232.470744" y="150.336" style="fill: #ff0000; stroke: #ff0000"/>
     <use xlink:href="#m241648db17" x="236.16" y="150.336" style="fill: #ff0000; stroke: #ff0000"/>
     <use xlink:href="#m241648db17" x="239.849256" y="150.336" style="fill: #ff0000; stroke: #ff0000"/>
     <use xlink:href="#m241648db17" x="243.538512" y="150.336" style="fill: #ff0000; stroke: #ff0000"/>
     <use xlink:href="#m241648db17" x="247.227769" y="150.336" style="fill: #ff0000; stroke: #ff0000"/>
     <use xlink:href="#m241648db17" x="250.917025" y="114.048" style="fill: #ff0000; stroke: #ff0000"/>
     <use xlink:href="#m241648db17" x="254.606281" y="162.432" style="fill: #ff0000; stroke: #ff0000"/>
     <use xlink:href="#m241648db17" x="258.295537" y="150.336" style="fill: #ff0000; stroke: #ff0000"/>
     <use xlink:href="#m241648db17" x="261.984793" y="150.336" style="fill: #ff0000; stroke: #ff0000"/>
     <use xlink:href="#m241648db17" x="265.67405" y="138.24" style="fill: #ff0000; stroke: #ff0000"/>
     <use xlink:href="#m241648db17" x="269.363306" y="150.336" style="fill: #ff0000; stroke: #ff0000"/>
     <use xlink:href="#m241648db17" x="273.052562" y="150.336" style="fill: #ff0000; stroke: #ff0000"/>
     <use xlink:href="#m241648db17" x="276.741818" y="138.24" style="fill: #ff0000; stroke: #ff0000"/>
     <use xlink:href="#m241648db17" x="280.431074" y="138.24" style="fill: #ff0000; stroke: #ff0000"/>
     <use xlink:href="#m241648db17" x="284.120331" y="162.432" style="fill: #ff0000; stroke: #ff0000"/>
     <use xlink:href="#m241648db17" x="287.809587" y="186.624" style="fill: #ff0000; stroke: #ff0000"/>
     <use xlink:href="#m241648db17" x="291.498843" y="138.24" style="fill: #ff0000; stroke: #ff0000"/>
     <use xlink:href="#m241648db17" x="295.188099" y="126.144" style="fill: #ff0000; stroke: #ff0000"/>
     <use xlink:href="#m241648db17" x="298.877355" y="114.048" style="fill: #ff0000; stroke: #ff0000"/>
     <use xlink:href="#m241648db17" x="302.566612" y="150.336" style="fill: #ff0000; stroke: #ff0000"/>
     <use xlink:href="#m241648db17" x="306.255868" y="126.144" style="fill: #ff0000; stroke: #ff0000"/>
     <use xlink:href="#m241648db17" x="309.945124" y="150.336" style="fill: #ff0000; stroke: #ff0000"/>
     <use xlink:href="#m241648db17" x="313.63438" y="162.432" style="fill: #ff0000; stroke: #ff0000"/>
     <use xlink:href="#m241648db17" x="317.323636" y="114.048" style="fill: #ff0000; stroke: #ff0000"/>
     <use xlink:href="#m241648db17" x="321.012893" y="162.432" style="fill: #ff0000; stroke: #ff0000"/>
     <use xlink:href="#m241648db17" x="324.702149" y="138.24" style="fill: #ff0000; stroke: #ff0000"/>
     <use xlink:href="#m241648db17" x="328.391405" y="126.144" style="fill: #ff0000; stroke: #ff0000"/>
     <use xlink:href="#m241648db17" x="332.080661" y="114.048" style="fill: #ff0000; stroke: #ff0000"/>
     <use xlink:href="#m241648db17" x="335.769917" y="138.24" style="fill: #ff0000; stroke: #ff0000"/>
     <use xlink:href="#m241648db17" x="339.459174" y="138.24" style="fill: #ff0000; stroke: #ff0000"/>
     <use xlink:href="#m241648db17" x="343.14843" y="150.336" style="fill: #ff0000; stroke: #ff0000"/>
     <use xlink:href="#m241648db17" x="346.837686" y="150.336" style="fill: #ff0000; stroke: #ff0000"/>
     <use xlink:href="#m241648db17" x="350.526942" y="162.432" style="fill: #ff0000; stroke: #ff0000"/>
     <use xlink:href="#m241648db17" x="354.216198" y="126.144" style="fill: #ff0000; stroke: #ff0000"/>
     <use xlink:href="#m241648db17" x="357.905455" y="162.432" style="fill: #ff0000; stroke: #ff0000"/>
     <use xlink:href="#m241648db17" x="361.594711" y="150.336" style="fill: #ff0000; stroke: #ff0000"/>
     <use xlink:href="#m241648db17" x="365.283967" y="126.144" style="fill: #ff0000; stroke: #ff0000"/>
     <use xlink:href="#m241648db17" x="368.973223" y="114.048" style="fill: #ff0000; stroke: #ff0000"/>
     <use xlink:href="#m241648db17" x="372.662479" y="126.144" style="fill: #ff0000; stroke: #ff0000"/>
     <use xlink:href="#m241648db17" x="376.351736" y="114.048" style="fill: #ff0000; stroke: #ff0000"/>
     <use xlink:href="#m241648db17" x="380.040992" y="138.24" style="fill: #ff0000; stroke: #ff0000"/>
     <use xlink:href="#m241648db17" x="383.730248" y="150.336" style="fill: #ff0000; stroke: #ff0000"/>
     <use xlink:href="#m241648db17" x="387.419504" y="150.336" style="fill: #ff0000; stroke: #ff0000"/>
     <use xlink:href="#m241648db17" x="391.10876" y="114.048" style="fill: #ff0000; stroke: #ff0000"/>
     <use xlink:href="#m241648db17" x="394.798017" y="162.432" style="fill: #ff0000; stroke: #ff0000"/>
     <use xlink:href="#m241648db17" x="398.487273" y="150.336" style="fill: #ff0000; stroke: #ff0000"/>
    </g>
   </g>
   <g id="line2d_16">
    <path d="M 73.832727 89.856 
L 77.521983 186.624 
L 81.21124 77.76 
L 84.900496 65.664 
L 88.589752 53.568 
L 92.279008 150.336 
L 95.968264 53.568 
L 99.657521 114.048 
L 103.346777 53.568 
L 107.036033 53.568 
L 110.725289 53.568 
L 114.414545 53.568 
L 118.103802 114.048 
L 121.793058 53.568 
L 125.482314 53.568 
L 129.17157 53.568 
L 132.860826 53.568 
L 136.550083 65.664 
L 140.239339 101.952 
L 143.928595 53.568 
L 147.617851 101.952 
L 151.307107 65.664 
L 154.996364 53.568 
L 158.68562 162.432 
L 162.374876 295.488 
L 166.064132 126.144 
L 169.753388 186.624 
L 173.442645 53.568 
L 177.131901 53.568 
L 180.821157 53.568 
L 184.510413 283.392 
L 188.199669 126.144 
L 191.888926 126.144 
L 195.578182 53.568 
L 199.267438 53.568 
L 202.956694 53.568 
L 206.64595 53.568 
L 210.335207 53.568 
L 214.024463 53.568 
L 217.713719 186.624 
L 221.402975 65.664 
L 225.092231 53.568 
L 228.781488 186.624 
L 232.470744 186.624 
L 236.16 53.568 
L 239.849256 138.24 
L 243.538512 138.24 
L 247.227769 53.568 
L 250.917025 53.568 
L 254.606281 53.568 
L 258.295537 114.048 
L 261.984793 53.568 
L 265.67405 162.432 
L 269.363306 53.568 
L 273.052562 53.568 
L 276.741818 114.048 
L 280.431074 53.568 
L 284.120331 53.568 
L 287.809587 53.568 
L 291.498843 53.568 
L 295.188099 77.76 
L 298.877355 53.568 
L 302.566612 53.568 
L 306.255868 174.528 
L 309.945124 53.568 
L 313.63438 77.76 
L 317.323636 53.568 
L 321.012893 53.568 
L 324.702149 53.568 
L 328.391405 53.568 
L 332.080661 186.624 
L 335.769917 53.568 
L 339.459174 222.912 
L 343.14843 53.568 
L 346.837686 210.816 
L 350.526942 53.568 
L 354.216198 53.568 
L 357.905455 53.568 
L 361.594711 53.568 
L 365.283967 65.664 
L 368.973223 89.856 
L 372.662479 101.952 
L 376.351736 89.856 
L 380.040992 53.568 
L 383.730248 53.568 
L 387.419504 222.912 
L 391.10876 162.432 
L 394.798017 150.336 
L 398.487273 53.568 
" clip-path="url(#pf413e7c922)" style="fill: none; stroke: #0000ff; stroke-width: 1.5; stroke-linecap: square"/>
    <defs>
     <path id="mc2fcf0dfea" d="M 0 3 
C 0.795609 3 1.55874 2.683901 2.12132 2.12132 
C 2.683901 1.55874 3 0.795609 3 0 
C 3 -0.795609 2.683901 -1.55874 2.12132 -2.12132 
C 1.55874 -2.683901 0.795609 -3 0 -3 
C -0.795609 -3 -1.55874 -2.683901 -2.12132 -2.12132 
C -2.683901 -1.55874 -3 -0.795609 -3 0 
C -3 0.795609 -2.683901 1.55874 -2.12132 2.12132 
C -1.55874 2.683901 -0.795609 3 0 3 
z
" style="stroke: #0000ff"/>
    </defs>
    <g clip-path="url(#pf413e7c922)">
     <use xlink:href="#mc2fcf0dfea" x="73.832727" y="89.856" style="fill: #0000ff; stroke: #0000ff"/>
     <use xlink:href="#mc2fcf0dfea" x="77.521983" y="186.624" style="fill: #0000ff; stroke: #0000ff"/>
     <use xlink:href="#mc2fcf0dfea" x="81.21124" y="77.76" style="fill: #0000ff; stroke: #0000ff"/>
     <use xlink:href="#mc2fcf0dfea" x="84.900496" y="65.664" style="fill: #0000ff; stroke: #0000ff"/>
     <use xlink:href="#mc2fcf0dfea" x="88.589752" y="53.568" style="fill: #0000ff; stroke: #0000ff"/>
     <use xlink:href="#mc2fcf0dfea" x="92.279008" y="150.336" style="fill: #0000ff; stroke: #0000ff"/>
     <use xlink:href="#mc2fcf0dfea" x="95.968264" y="53.568" style="fill: #0000ff; stroke: #0000ff"/>
     <use xlink:href="#mc2fcf0dfea" x="99.657521" y="114.048" style="fill: #0000ff; stroke: #0000ff"/>
     <use xlink:href="#mc2fcf0dfea" x="103.346777" y="53.568" style="fill: #0000ff; stroke: #0000ff"/>
     <use xlink:href="#mc2fcf0dfea" x="107.036033" y="53.568" style="fill: #0000ff; stroke: #0000ff"/>
     <use xlink:href="#mc2fcf0dfea" x="110.725289" y="53.568" style="fill: #0000ff; stroke: #0000ff"/>
     <use xlink:href="#mc2fcf0dfea" x="114.414545" y="53.568" style="fill: #0000ff; stroke: #0000ff"/>
     <use xlink:href="#mc2fcf0dfea" x="118.103802" y="114.048" style="fill: #0000ff; stroke: #0000ff"/>
     <use xlink:href="#mc2fcf0dfea" x="121.793058" y="53.568" style="fill: #0000ff; stroke: #0000ff"/>
     <use xlink:href="#mc2fcf0dfea" x="125.482314" y="53.568" style="fill: #0000ff; stroke: #0000ff"/>
     <use xlink:href="#mc2fcf0dfea" x="129.17157" y="53.568" style="fill: #0000ff; stroke: #0000ff"/>
     <use xlink:href="#mc2fcf0dfea" x="132.860826" y="53.568" style="fill: #0000ff; stroke: #0000ff"/>
     <use xlink:href="#mc2fcf0dfea" x="136.550083" y="65.664" style="fill: #0000ff; stroke: #0000ff"/>
     <use xlink:href="#mc2fcf0dfea" x="140.239339" y="101.952" style="fill: #0000ff; stroke: #0000ff"/>
     <use xlink:href="#mc2fcf0dfea" x="143.928595" y="53.568" style="fill: #0000ff; stroke: #0000ff"/>
     <use xlink:href="#mc2fcf0dfea" x="147.617851" y="101.952" style="fill: #0000ff; stroke: #0000ff"/>
     <use xlink:href="#mc2fcf0dfea" x="151.307107" y="65.664" style="fill: #0000ff; stroke: #0000ff"/>
     <use xlink:href="#mc2fcf0dfea" x="154.996364" y="53.568" style="fill: #0000ff; stroke: #0000ff"/>
     <use xlink:href="#mc2fcf0dfea" x="158.68562" y="162.432" style="fill: #0000ff; stroke: #0000ff"/>
     <use xlink:href="#mc2fcf0dfea" x="162.374876" y="295.488" style="fill: #0000ff; stroke: #0000ff"/>
     <use xlink:href="#mc2fcf0dfea" x="166.064132" y="126.144" style="fill: #0000ff; stroke: #0000ff"/>
     <use xlink:href="#mc2fcf0dfea" x="169.753388" y="186.624" style="fill: #0000ff; stroke: #0000ff"/>
     <use xlink:href="#mc2fcf0dfea" x="173.442645" y="53.568" style="fill: #0000ff; stroke: #0000ff"/>
     <use xlink:href="#mc2fcf0dfea" x="177.131901" y="53.568" style="fill: #0000ff; stroke: #0000ff"/>
     <use xlink:href="#mc2fcf0dfea" x="180.821157" y="53.568" style="fill: #0000ff; stroke: #0000ff"/>
     <use xlink:href="#mc2fcf0dfea" x="184.510413" y="283.392" style="fill: #0000ff; stroke: #0000ff"/>
     <use xlink:href="#mc2fcf0dfea" x="188.199669" y="126.144" style="fill: #0000ff; stroke: #0000ff"/>
     <use xlink:href="#mc2fcf0dfea" x="191.888926" y="126.144" style="fill: #0000ff; stroke: #0000ff"/>
     <use xlink:href="#mc2fcf0dfea" x="195.578182" y="53.568" style="fill: #0000ff; stroke: #0000ff"/>
     <use xlink:href="#mc2fcf0dfea" x="199.267438" y="53.568" style="fill: #0000ff; stroke: #0000ff"/>
     <use xlink:href="#mc2fcf0dfea" x="202.956694" y="53.568" style="fill: #0000ff; stroke: #0000ff"/>
     <use xlink:href="#mc2fcf0dfea" x="206.64595" y="53.568" style="fill: #0000ff; stroke: #0000ff"/>
     <use xlink:href="#mc2fcf0dfea" x="210.335207" y="53.568" style="fill: #0000ff; stroke: #0000ff"/>
     <use xlink:href="#mc2fcf0dfea" x="214.024463" y="53.568" style="fill: #0000ff; stroke: #0000ff"/>
     <use xlink:href="#mc2fcf0dfea" x="217.713719" y="186.624" style="fill: #0000ff; stroke: #0000ff"/>
     <use xlink:href="#mc2fcf0dfea" x="221.402975" y="65.664" style="fill: #0000ff; stroke: #0000ff"/>
     <use xlink:href="#mc2fcf0dfea" x="225.092231" y="53.568" style="fill: #0000ff; stroke: #0000ff"/>
     <use xlink:href="#mc2fcf0dfea" x="228.781488" y="186.624" style="fill: #0000ff; stroke: #0000ff"/>
     <use xlink:href="#mc2fcf0dfea" x="232.470744" y="186.624" style="fill: #0000ff; stroke: #0000ff"/>
     <use xlink:href="#mc2fcf0dfea" x="236.16" y="53.568" style="fill: #0000ff; stroke: #0000ff"/>
     <use xlink:href="#mc2fcf0dfea" x="239.849256" y="138.24" style="fill: #0000ff; stroke: #0000ff"/>
     <use xlink:href="#mc2fcf0dfea" x="243.538512" y="138.24" style="fill: #0000ff; stroke: #0000ff"/>
     <use xlink:href="#mc2fcf0dfea" x="247.227769" y="53.568" style="fill: #0000ff; stroke: #0000ff"/>
     <use xlink:href="#mc2fcf0dfea" x="250.917025" y="53.568" style="fill: #0000ff; stroke: #0000ff"/>
     <use xlink:href="#mc2fcf0dfea" x="254.606281" y="53.568" style="fill: #0000ff; stroke: #0000ff"/>
     <use xlink:href="#mc2fcf0dfea" x="258.295537" y="114.048" style="fill: #0000ff; stroke: #0000ff"/>
     <use xlink:href="#mc2fcf0dfea" x="261.984793" y="53.568" style="fill: #0000ff; stroke: #0000ff"/>
     <use xlink:href="#mc2fcf0dfea" x="265.67405" y="162.432" style="fill: #0000ff; stroke: #0000ff"/>
     <use xlink:href="#mc2fcf0dfea" x="269.363306" y="53.568" style="fill: #0000ff; stroke: #0000ff"/>
     <use xlink:href="#mc2fcf0dfea" x="273.052562" y="53.568" style="fill: #0000ff; stroke: #0000ff"/>
     <use xlink:href="#mc2fcf0dfea" x="276.741818" y="114.048" style="fill: #0000ff; stroke: #0000ff"/>
     <use xlink:href="#mc2fcf0dfea" x="280.431074" y="53.568" style="fill: #0000ff; stroke: #0000ff"/>
     <use xlink:href="#mc2fcf0dfea" x="284.120331" y="53.568" style="fill: #0000ff; stroke: #0000ff"/>
     <use xlink:href="#mc2fcf0dfea" x="287.809587" y="53.568" style="fill: #0000ff; stroke: #0000ff"/>
     <use xlink:href="#mc2fcf0dfea" x="291.498843" y="53.568" style="fill: #0000ff; stroke: #0000ff"/>
     <use xlink:href="#mc2fcf0dfea" x="295.188099" y="77.76" style="fill: #0000ff; stroke: #0000ff"/>
     <use xlink:href="#mc2fcf0dfea" x="298.877355" y="53.568" style="fill: #0000ff; stroke: #0000ff"/>
     <use xlink:href="#mc2fcf0dfea" x="302.566612" y="53.568" style="fill: #0000ff; stroke: #0000ff"/>
     <use xlink:href="#mc2fcf0dfea" x="306.255868" y="174.528" style="fill: #0000ff; stroke: #0000ff"/>
     <use xlink:href="#mc2fcf0dfea" x="309.945124" y="53.568" style="fill: #0000ff; stroke: #0000ff"/>
     <use xlink:href="#mc2fcf0dfea" x="313.63438" y="77.76" style="fill: #0000ff; stroke: #0000ff"/>
     <use xlink:href="#mc2fcf0dfea" x="317.323636" y="53.568" style="fill: #0000ff; stroke: #0000ff"/>
     <use xlink:href="#mc2fcf0dfea" x="321.012893" y="53.568" style="fill: #0000ff; stroke: #0000ff"/>
     <use xlink:href="#mc2fcf0dfea" x="324.702149" y="53.568" style="fill: #0000ff; stroke: #0000ff"/>
     <use xlink:href="#mc2fcf0dfea" x="328.391405" y="53.568" style="fill: #0000ff; stroke: #0000ff"/>
     <use xlink:href="#mc2fcf0dfea" x="332.080661" y="186.624" style="fill: #0000ff; stroke: #0000ff"/>
     <use xlink:href="#mc2fcf0dfea" x="335.769917" y="53.568" style="fill: #0000ff; stroke: #0000ff"/>
     <use xlink:href="#mc2fcf0dfea" x="339.459174" y="222.912" style="fill: #0000ff; stroke: #0000ff"/>
     <use xlink:href="#mc2fcf0dfea" x="343.14843" y="53.568" style="fill: #0000ff; stroke: #0000ff"/>
     <use xlink:href="#mc2fcf0dfea" x="346.837686" y="210.816" style="fill: #0000ff; stroke: #0000ff"/>
     <use xlink:href="#mc2fcf0dfea" x="350.526942" y="53.568" style="fill: #0000ff; stroke: #0000ff"/>
     <use xlink:href="#mc2fcf0dfea" x="354.216198" y="53.568" style="fill: #0000ff; stroke: #0000ff"/>
     <use xlink:href="#mc2fcf0dfea" x="357.905455" y="53.568" style="fill: #0000ff; stroke: #0000ff"/>
     <use xlink:href="#mc2fcf0dfea" x="361.594711" y="53.568" style="fill: #0000ff; stroke: #0000ff"/>
     <use xlink:href="#mc2fcf0dfea" x="365.283967" y="65.664" style="fill: #0000ff; stroke: #0000ff"/>
     <use xlink:href="#mc2fcf0dfea" x="368.973223" y="89.856" style="fill: #0000ff; stroke: #0000ff"/>
     <use xlink:href="#mc2fcf0dfea" x="372.662479" y="101.952" style="fill: #0000ff; stroke: #0000ff"/>
     <use xlink:href="#mc2fcf0dfea" x="376.351736" y="89.856" style="fill: #0000ff; stroke: #0000ff"/>
     <use xlink:href="#mc2fcf0dfea" x="380.040992" y="53.568" style="fill: #0000ff; stroke: #0000ff"/>
     <use xlink:href="#mc2fcf0dfea" x="383.730248" y="53.568" style="fill: #0000ff; stroke: #0000ff"/>
     <use xlink:href="#mc2fcf0dfea" x="387.419504" y="222.912" style="fill: #0000ff; stroke: #0000ff"/>
     <use xlink:href="#mc2fcf0dfea" x="391.10876" y="162.432" style="fill: #0000ff; stroke: #0000ff"/>
     <use xlink:href="#mc2fcf0dfea" x="394.798017" y="150.336" style="fill: #0000ff; stroke: #0000ff"/>
     <use xlink:href="#mc2fcf0dfea" x="398.487273" y="53.568" style="fill: #0000ff; stroke: #0000ff"/>
    </g>
   </g>
   <g id="patch_3">
    <path d="M 57.6 307.584 
L 57.6 41.472 
" style="fill: none; stroke: #000000; stroke-width: 0.8; stroke-linejoin: miter; stroke-linecap: square"/>
   </g>
   <g id="patch_4">
    <path d="M 414.72 307.584 
L 414.72 41.472 
" style="fill: none; stroke: #000000; stroke-width: 0.8; stroke-linejoin: miter; stroke-linecap: square"/>
   </g>
   <g id="patch_5">
    <path d="M 57.6 307.584 
L 414.72 307.584 
" style="fill: none; stroke: #000000; stroke-width: 0.8; stroke-linejoin: miter; stroke-linecap: square"/>
   </g>
   <g id="patch_6">
    <path d="M 57.6 41.472 
L 414.72 41.472 
" style="fill: none; stroke: #000000; stroke-width: 0.8; stroke-linejoin: miter; stroke-linecap: square"/>
   </g>
   <g id="legend_1">
    <g id="patch_7">
     <path d="M 64.6 302.584 
L 157.548438 302.584 
Q 159.548438 302.584 159.548438 300.584 
L 159.548438 286.905875 
Q 159.548438 284.905875 157.548438 284.905875 
L 64.6 284.905875 
Q 62.6 284.905875 62.6 286.905875 
L 62.6 300.584 
Q 62.6 302.584 64.6 302.584 
z
" style="fill: #ffffff; opacity: 0.8; stroke: #cccccc; stroke-linejoin: miter"/>
    </g>
    <g id="line2d_17">
     <path d="M 66.6 293.004312 
L 76.6 293.004312 
L 86.6 293.004312 
" style="fill: none; stroke: #ff0000; stroke-width: 1.5; stroke-linecap: square"/>
     <g>
      <use xlink:href="#m241648db17" x="76.6" y="293.004312" style="fill: #ff0000; stroke: #ff0000"/>
     </g>
    </g>
    <g id="text_17">
     <!-- DL (AVG 77) -->
     <g transform="translate(94.6 296.504312)scale(0.1 -0.1)">
      <defs>
       <path id="DejaVuSans-44" d="M 1259 4147 
L 1259 519 
L 2022 519 
Q 2988 519 3436 956 
Q 3884 1394 3884 2338 
Q 3884 3275 3436 3711 
Q 2988 4147 2022 4147 
L 1259 4147 
z
M 628 4666 
L 1925 4666 
Q 3281 4666 3915 4102 
Q 4550 3538 4550 2338 
Q 4550 1131 3912 565 
Q 3275 0 1925 0 
L 628 0 
L 628 4666 
z
" transform="scale(0.015625)"/>
       <path id="DejaVuSans-4c" d="M 628 4666 
L 1259 4666 
L 1259 531 
L 3531 531 
L 3531 0 
L 628 0 
L 628 4666 
z
" transform="scale(0.015625)"/>
       <path id="DejaVuSans-28" d="M 1984 4856 
Q 1566 4138 1362 3434 
Q 1159 2731 1159 2009 
Q 1159 1288 1364 580 
Q 1569 -128 1984 -844 
L 1484 -844 
Q 1016 -109 783 600 
Q 550 1309 550 2009 
Q 550 2706 781 3412 
Q 1013 4119 1484 4856 
L 1984 4856 
z
" transform="scale(0.015625)"/>
       <path id="DejaVuSans-41" d="M 2188 4044 
L 1331 1722 
L 3047 1722 
L 2188 4044 
z
M 1831 4666 
L 2547 4666 
L 4325 0 
L 3669 0 
L 3244 1197 
L 1141 1197 
L 716 0 
L 50 0 
L 1831 4666 
z
" transform="scale(0.015625)"/>
       <path id="DejaVuSans-56" d="M 1831 0 
L 50 4666 
L 709 4666 
L 2188 738 
L 3669 4666 
L 4325 4666 
L 2547 0 
L 1831 0 
z
" transform="scale(0.015625)"/>
       <path id="DejaVuSans-47" d="M 3809 666 
L 3809 1919 
L 2778 1919 
L 2778 2438 
L 4434 2438 
L 4434 434 
Q 4069 175 3628 42 
Q 3188 -91 2688 -91 
Q 1594 -91 976 548 
Q 359 1188 359 2328 
Q 359 3472 976 4111 
Q 1594 4750 2688 4750 
Q 3144 4750 3555 4637 
Q 3966 4525 4313 4306 
L 4313 3634 
Q 3963 3931 3569 4081 
Q 3175 4231 2741 4231 
Q 1884 4231 1454 3753 
Q 1025 3275 1025 2328 
Q 1025 1384 1454 906 
Q 1884 428 2741 428 
Q 3075 428 3337 486 
Q 3600 544 3809 666 
z
" transform="scale(0.015625)"/>
       <path id="DejaVuSans-29" d="M 513 4856 
L 1013 4856 
Q 1481 4119 1714 3412 
Q 1947 2706 1947 2009 
Q 1947 1309 1714 600 
Q 1481 -109 1013 -844 
L 513 -844 
Q 928 -128 1133 580 
Q 1338 1288 1338 2009 
Q 1338 2731 1133 3434 
Q 928 4138 513 4856 
z
" transform="scale(0.015625)"/>
      </defs>
      <use xlink:href="#DejaVuSans-44"/>
      <use xlink:href="#DejaVuSans-4c" x="77.001953"/>
      <use xlink:href="#DejaVuSans-20" x="132.714844"/>
      <use xlink:href="#DejaVuSans-28" x="164.501953"/>
      <use xlink:href="#DejaVuSans-41" x="203.515625"/>
      <use xlink:href="#DejaVuSans-56" x="265.548828"/>
      <use xlink:href="#DejaVuSans-47" x="333.957031"/>
      <use xlink:href="#DejaVuSans-20" x="411.447266"/>
      <use xlink:href="#DejaVuSans-37" x="443.234375"/>
      <use xlink:href="#DejaVuSans-37" x="506.857422"/>
      <use xlink:href="#DejaVuSans-29" x="570.480469"/>
     </g>
    </g>
   </g>
   <g id="legend_2">
    <g id="patch_8">
     <path d="M 64.6 64.150125 
L 157.167188 64.150125 
Q 159.167188 64.150125 159.167188 62.150125 
L 159.167188 48.472 
Q 159.167188 46.472 157.167188 46.472 
L 64.6 46.472 
Q 62.6 46.472 62.6 48.472 
L 62.6 62.150125 
Q 62.6 64.150125 64.6 64.150125 
z
" style="fill: #ffffff; opacity: 0.8; stroke: #cccccc; stroke-linejoin: miter"/>
    </g>
    <g id="line2d_18">
     <path d="M 66.6 54.570438 
L 76.6 54.570438 
L 86.6 54.570438 
" style="fill: none; stroke: #0000ff; stroke-width: 1.5; stroke-linecap: square"/>
     <g>
      <use xlink:href="#mc2fcf0dfea" x="76.6" y="54.570438" style="fill: #0000ff; stroke: #0000ff"/>
     </g>
    </g>
    <g id="text_18">
     <!-- UL (AVG 81) -->
     <g transform="translate(94.6 58.070438)scale(0.1 -0.1)">
      <defs>
       <path id="DejaVuSans-55" d="M 556 4666 
L 1191 4666 
L 1191 1831 
Q 1191 1081 1462 751 
Q 1734 422 2344 422 
Q 2950 422 3222 751 
Q 3494 1081 3494 1831 
L 3494 4666 
L 4128 4666 
L 4128 1753 
Q 4128 841 3676 375 
Q 3225 -91 2344 -91 
Q 1459 -91 1007 375 
Q 556 841 556 1753 
L 556 4666 
z
" transform="scale(0.015625)"/>
       <path id="DejaVuSans-31" d="M 794 531 
L 1825 531 
L 1825 4091 
L 703 3866 
L 703 4441 
L 1819 4666 
L 2450 4666 
L 2450 531 
L 3481 531 
L 3481 0 
L 794 0 
L 794 531 
z
" transform="scale(0.015625)"/>
      </defs>
      <use xlink:href="#DejaVuSans-55"/>
      <use xlink:href="#DejaVuSans-4c" x="73.193359"/>
      <use xlink:href="#DejaVuSans-20" x="128.90625"/>
      <use xlink:href="#DejaVuSans-28" x="160.693359"/>
      <use xlink:href="#DejaVuSans-41" x="199.707031"/>
      <use xlink:href="#DejaVuSans-56" x="261.740234"/>
      <use xlink:href="#DejaVuSans-47" x="330.148438"/>
      <use xlink:href="#DejaVuSans-20" x="407.638672"/>
      <use xlink:href="#DejaVuSans-38" x="439.425781"/>
      <use xlink:href="#DejaVuSans-31" x="503.048828"/>
      <use xlink:href="#DejaVuSans-29" x="566.671875"/>
     </g>
    </g>
   </g>
   <g id="legend_3">
    <g id="patch_9">
     <path d="M 64.6 64.150125 
L 157.167188 64.150125 
Q 159.167188 64.150125 159.167188 62.150125 
L 159.167188 48.472 
Q 159.167188 46.472 157.167188 46.472 
L 64.6 46.472 
Q 62.6 46.472 62.6 48.472 
L 62.6 62.150125 
Q 62.6 64.150125 64.6 64.150125 
z
" style="fill: #ffffff; opacity: 0.8; stroke: #cccccc; stroke-linejoin: miter"/>
    </g>
    <g id="line2d_19">
     <path d="M 66.6 54.570438 
L 76.6 54.570438 
L 86.6 54.570438 
" style="fill: none; stroke: #0000ff; stroke-width: 1.5; stroke-linecap: square"/>
     <g>
      <use xlink:href="#mc2fcf0dfea" x="76.6" y="54.570438" style="fill: #0000ff; stroke: #0000ff"/>
     </g>
    </g>
    <g id="text_19">
     <!-- UL (AVG 81) -->
     <g transform="translate(94.6 58.070438)scale(0.1 -0.1)">
      <use xlink:href="#DejaVuSans-55"/>
      <use xlink:href="#DejaVuSans-4c" x="73.193359"/>
      <use xlink:href="#DejaVuSans-20" x="128.90625"/>
      <use xlink:href="#DejaVuSans-28" x="160.693359"/>
      <use xlink:href="#DejaVuSans-41" x="199.707031"/>
      <use xlink:href="#DejaVuSans-56" x="261.740234"/>
      <use xlink:href="#DejaVuSans-47" x="330.148438"/>
      <use xlink:href="#DejaVuSans-20" x="407.638672"/>
      <use xlink:href="#DejaVuSans-38" x="439.425781"/>
      <use xlink:href="#DejaVuSans-31" x="503.048828"/>
      <use xlink:href="#DejaVuSans-29" x="566.671875"/>
     </g>
    </g>
   </g>
  </g>
  <g id="legend_4">
   <g id="patch_10">
    <path d="M 449.8 13 
L 453.8 13 
Q 455.8 13 455.8 11 
L 455.8 7 
Q 455.8 5 453.8 5 
L 449.8 5 
Q 447.8 5 447.8 7 
L 447.8 11 
Q 447.8 13 449.8 13 
z
" style="fill: #ffffff; opacity: 0.8; stroke: #cccccc; stroke-linejoin: miter"/>
   </g>
  </g>
 </g>
 <defs>
  <clipPath id="pf413e7c922">
   <rect x="57.6" y="41.472" width="357.12" height="266.112"/>
  </clipPath>
 </defs>
</svg>
